<svg width="33.000000" height="33.000000" viewBox="0 0 33 33" xmlns="http://www.w3.org/2000/svg" xmlns:xlink="http://www.w3.org/1999/xlink">
    <g id="arrow-right">
        <path fill-rule="evenodd" clip-rule="evenodd" d="M2.33325 14.0002C2.33325 13.3559 2.85559 12.8335 3.49991 12.8335H24.4999C25.1442 12.8335 25.6666 13.3559 25.6666 14.0002C25.6666 14.6446 25.1442 15.1669 24.4999 15.1669H3.49991C2.85559 15.1669 2.33325 14.6446 2.33325 14.0002Z" fill="white"/>
        <path fill-rule="evenodd" clip-rule="evenodd" d="M16.6752 6.1752C17.1307 5.71959 17.8695 5.71959 18.3251 6.1752L25.3251 13.1753C25.7806 13.6308 25.7806 14.3696 25.3251 14.8252L18.3251 21.8252C17.8695 22.2807 17.1307 22.2807 16.6752 21.8252C16.2196 21.3696 16.2196 20.6308 16.6752 20.1753L22.8502 14.0002L16.6752 7.82512C16.2196 7.3695 16.2196 6.63082 16.6752 6.1752Z" fill="white"/>
    </g>

    <g id="+">
        <path d="M73.2847 20.9092L85.4554 33.0798L33.7689 84.7663L21.5983 72.5956L73.2847 20.9092ZM33.251 19.4073L88.1485 74.3047L75.0456 87.4076L20.1481 32.5102L33.251 19.4073Z" fill="#212F56"/>
    </g>

    <g id="circle">
        <circle cx="76" cy="76" r="63.5" stroke="#213C8A" stroke-width="25"/>
    </g>

    <g id="edit"><path d="M14.3814 48.6342L28.4021 56.7279L44.5896 28.6889L30.5689 20.5951L14.3814 48.6342ZM12.6471 52.9701L15.0312 63.6654L25.5092 60.3401L12.6471 52.9701ZM32.8814 16.5483L46.9021 24.642L51.0207 17.5588L37 9.46506L32.8814 16.5483ZM7.51562 51.2358L35.2656 3.17969L57.3061 15.8984L29.5561 63.9545L11.6342 69.5924L7.51562 51.2358ZM35.2656 69.5924V64.9674H67.6406V69.5924H35.2656Z" fill="#2157F2"/>
    </g>


    <g id="export-border"><path d="M1.08333 23.8332H24.9167C25.233 23.8332 25.4926 23.9346 25.6956 24.1376C25.8985 24.3406 26 24.6002 26 24.9166C26 25.2329 25.8985 25.4926 25.6956 25.6956C25.4926 25.8985 25.233 26 24.9167 26H1.08333C0.767 26 0.507361 25.8985 0.304417 25.6956C0.101472 25.4926 0 25.2329 0 24.9166C0 24.6002 0.101472 24.3406 0.304417 24.1376C0.507361 23.9346 0.767 23.8332 1.08333 23.8332ZM14.0833 4.26436V19.5005H11.9167V4.02817L3.68983 12.2557L2.16667 10.7324L12.8982 0L23.6297 10.7324L22.0718 12.2557L14.0833 4.26436Z" fill="white" fill-opacity="0.96"/>
    </g>
    <g id="ins-border">
        <path d="M13.0052 2.34253C9.53333 2.34253 9.12579 2.35801 7.75357 2.41992C6.48452 2.47668 5.79841 2.68823 5.33928 2.86882C4.73055 3.10617 4.29722 3.3848 3.84325 3.83886C3.38929 4.29292 3.10556 4.72633 2.87341 5.33519C2.69802 5.7944 2.48135 6.48065 2.4246 7.74995C2.3627 9.12245 2.34722 9.53007 2.34722 13.0026C2.34722 16.4751 2.3627 16.8827 2.4246 18.2552C2.48135 19.5245 2.69286 20.2108 2.87341 20.67C3.11071 21.2788 3.38929 21.7122 3.84325 22.1663C4.29722 22.6204 4.73055 22.9041 5.33928 23.1363C5.79841 23.3118 6.48452 23.5285 7.75357 23.5852C9.12579 23.6472 9.53333 23.6626 13.0052 23.6626C16.477 23.6626 16.8845 23.6472 18.2567 23.5852C19.5258 23.5285 20.2119 23.3169 20.671 23.1363C21.2798 22.899 21.7131 22.6204 22.1671 22.1663C22.621 21.7122 22.9048 21.2788 23.1369 20.67C23.3123 20.2108 23.529 19.5245 23.5857 18.2552C23.6476 16.8827 23.6631 16.4751 23.6631 13.0026C23.6631 9.53007 23.6476 9.12245 23.5857 7.74995C23.529 6.48065 23.3175 5.7944 23.1369 5.33519C22.8996 4.72633 22.621 4.29292 22.1671 3.83886C21.7131 3.3848 21.2798 3.10101 20.671 2.86882C20.2119 2.69339 19.5258 2.47668 18.2567 2.41992C16.8845 2.35285 16.4718 2.34253 13.0052 2.34253ZM13.0052 0C16.5337 0 16.9774 0.0154793 18.3651 0.0773963C19.7476 0.139313 20.6917 0.361183 21.5171 0.681087C22.3734 1.01131 23.0956 1.46021 23.8179 2.18258C24.5401 2.90494 24.9837 3.63247 25.319 4.48383C25.6389 5.30939 25.8607 6.25362 25.9226 7.6416C25.9845 9.02441 26 9.46815 26 12.9974C26 16.5267 25.9845 16.9704 25.9226 18.3584C25.8607 19.7412 25.6389 20.6855 25.319 21.5162C24.9889 22.3727 24.5401 23.0951 23.8179 23.8174C23.0956 24.5398 22.3683 24.9835 21.5171 25.3189C20.6917 25.6388 19.7476 25.8607 18.3599 25.9226C16.9722 25.9845 16.5337 26 13 26C9.46627 26 9.02778 25.9845 7.64008 25.9226C6.25754 25.8607 5.31349 25.6388 4.48294 25.3189C3.62659 24.9887 2.90436 24.5398 2.18214 23.8174C1.45992 23.0951 1.01627 22.3675 0.680952 21.5162C0.361111 20.6906 0.139286 19.7464 0.0773811 18.3584C0.0154762 16.9704 0 16.5319 0 12.9974C0 9.46299 0.0154762 9.02441 0.0773811 7.63644C0.139286 6.25362 0.361111 5.30939 0.680952 4.47867C1.01111 3.62215 1.45992 2.89978 2.18214 2.17742C2.90436 1.45505 3.63175 1.01131 4.48294 0.675928C5.30833 0.356023 6.25238 0.134154 7.64008 0.0722366C9.03294 0.0154793 9.47659 0 13.0052 0Z" fill="white"/>
        <path d="M13.0052 6.32568C16.6885 6.32568 19.6805 9.31318 19.6805 13.0024C19.6805 16.6916 16.6936 19.6791 13.0052 19.6791C9.31666 19.6791 6.32976 16.6916 6.32976 13.0024C6.32976 9.31318 9.31666 6.32568 13.0052 6.32568ZM13.0052 17.3314C15.3988 17.3314 17.3385 15.3914 17.3385 12.9972C17.3385 10.6031 15.3988 8.66305 13.0052 8.66305C10.6115 8.66305 8.67182 10.6031 8.67182 12.9972C8.67182 15.3914 10.6115 17.3314 13.0052 17.3314Z" fill="white"/>
        <path d="M6.0667 7.61562C5.20627 7.61562 4.50876 6.91784 4.50876 6.05708C4.50876 5.19632 5.20627 4.49854 6.0667 4.49854C6.92712 4.49854 7.62463 5.19632 7.62463 6.05708C7.62463 6.91784 6.92712 7.61562 6.0667 7.61562Z" fill="white"/>
    </g>

    <g id="notebook">
        <path d="M25.0938 9.125V63.875H20.5312V9.125H13.6875V63.875H59.3125V9.125H25.0938ZM11.4062 4.5625H61.5938C62.2599 4.5625 62.8066 4.77618 63.234 5.20353C63.6613 5.63089 63.875 6.17763 63.875 6.84375V66.1562C63.875 66.8224 63.6613 67.3691 63.234 67.7965C62.8066 68.2238 62.2599 68.4375 61.5938 68.4375H11.4062C10.7401 68.4375 10.1934 68.2238 9.76603 67.7965C9.33868 67.3691 9.125 66.8224 9.125 66.1562V6.84375C9.125 6.17763 9.33868 5.63089 9.76603 5.20353C10.1934 4.77618 10.7401 4.5625 11.4062 4.5625ZM34.2188 18.25H47.9062C49.4271 18.25 50.1875 19.0104 50.1875 20.5312C50.1875 22.0521 49.4271 22.8125 47.9062 22.8125H34.2188C32.6979 22.8125 31.9375 22.0521 31.9375 20.5312C31.9375 19.0104 32.6979 18.25 34.2188 18.25ZM34.2188 31.9375H47.9062C49.4271 31.9375 50.1875 32.6979 50.1875 34.2188C50.1875 35.7396 49.4271 36.5 47.9062 36.5H34.2188C32.6979 36.5 31.9375 35.7396 31.9375 34.2188C31.9375 32.6979 32.6979 31.9375 34.2188 31.9375ZM34.2188 45.625H47.9062C49.4271 45.625 50.1875 46.3854 50.1875 47.9062C50.1875 49.4271 49.4271 50.1875 47.9062 50.1875H34.2188C32.6979 50.1875 31.9375 49.4271 31.9375 47.9062C31.9375 46.3854 32.6979 45.625 34.2188 45.625Z" fill="#2157F2"/>
    </g>
    <g id="tg-border">
        <path d="M30.5104 16.2212C30.5104 24.3703 23.9043 30.9764 15.7552 30.9764C7.60614 30.9764 1 24.3703 1 16.2212C1 8.07211 7.60614 1.46597 15.7552 1.46597C23.9043 1.46597 30.5104 8.07211 30.5104 16.2212Z" stroke="white" stroke-width="2"/>
        <path fill-rule="evenodd" clip-rule="evenodd" d="M7.13168 16.0549C11.7246 14.0538 14.7873 12.7346 16.3198 12.0972C20.6952 10.2773 21.6043 9.9612 22.1969 9.95076C22.3272 9.94847 22.6187 9.98077 22.8074 10.1339C22.9668 10.2633 23.0107 10.438 23.0317 10.5606C23.0526 10.6832 23.0788 10.9626 23.058 11.1808C22.8209 13.6721 21.795 19.7178 21.273 22.508C21.0522 23.6887 20.6173 24.0846 20.1963 24.1233C19.2814 24.2075 18.5866 23.5187 17.7004 22.9378C16.3138 22.0288 15.5304 21.463 14.1844 20.576C12.6289 19.5509 13.6372 18.9875 14.5237 18.0667C14.7557 17.8258 18.787 14.1591 18.865 13.8264C18.8747 13.7848 18.8838 13.6298 18.7917 13.5479C18.6996 13.466 18.5636 13.494 18.4655 13.5163C18.3264 13.5479 16.1112 15.012 11.8198 17.9088C11.1911 18.3406 10.6215 18.5509 10.1112 18.5399C9.5487 18.5278 8.4666 18.2219 7.66216 17.9604C6.67549 17.6396 5.8913 17.4701 5.95959 16.9254C5.99516 16.6417 6.38585 16.3515 7.13168 16.0549Z" fill="white"/>
    </g>
    <g id="video-play">
        <path d="M36.5 4.5625C45.5307 4.79975 53.052 7.9243 59.0638 13.9362C65.0757 19.948 68.2002 27.4693 68.4375 36.5C68.2002 45.5307 65.0757 53.052 59.0638 59.0638C53.052 65.0757 45.5307 68.2002 36.5 68.4375C27.4693 68.2002 19.948 65.0757 13.9362 59.0638C7.9243 53.052 4.79975 45.5307 4.5625 36.5C4.79975 27.4693 7.9243 19.948 13.9362 13.9362C19.948 7.9243 27.4693 4.79975 36.5 4.5625ZM36.5 63.875C44.2471 63.6849 50.6985 61.0113 55.8541 55.8541C61.0097 50.697 63.6834 44.2456 63.875 36.5C63.6849 28.7529 61.0113 22.3015 55.8541 17.1459C50.697 11.9902 44.2456 9.31663 36.5 9.125C28.7529 9.3151 22.3015 11.9887 17.1459 17.1459C11.9902 22.303 9.31663 28.7544 9.125 36.5C9.3151 44.2471 11.9887 50.6985 17.1459 55.8541C22.303 61.0097 28.7544 63.6834 36.5 63.875ZM33.0781 46.1953L47.6918 36.5L33.0781 26.8047V46.1953ZM33.8629 21.8156L51.6133 33.6507C52.6109 34.364 53.1098 35.3145 53.1098 36.5023C53.1098 37.6901 52.6109 38.6406 51.6133 39.3538L33.8629 51.189C33.2926 51.5692 32.6987 51.7714 32.0812 51.7958C31.4638 51.8201 30.8813 51.6772 30.3338 51.3669C29.7863 51.0567 29.3468 50.6407 29.0152 50.1191C28.6837 49.5974 28.5171 49.0035 28.5156 48.3374V24.6694C28.5156 24.0033 28.6822 23.4094 29.0152 22.8878C29.3483 22.3661 29.7878 21.9502 30.3338 21.6399C30.8798 21.3297 31.4622 21.1867 32.0812 21.2111C32.7002 21.2354 33.2941 21.4377 33.8629 21.8179V21.8156Z" fill="#2157F2"/>
    </g>
    <g id="wa-border">
        <path d="M0 26L1.83763 19.327C0.701528 17.3683 0.10554 15.1502 0.111748 12.8826C0.111748 5.77709 5.92263 0 13.0559 0C16.52 0 19.7731 1.34078 22.213 3.77519C24.659 6.2096 26.0062 9.44724 26 12.8888C26 19.9943 20.1891 25.7714 13.0497 25.7714H13.0434C10.8768 25.7714 8.74737 25.2277 6.85386 24.202L0 26ZM7.1829 21.8726L7.57402 22.1074C9.2254 23.0836 11.1189 23.5965 13.0497 23.6027H13.0559C18.9847 23.6027 23.8147 18.8018 23.8147 12.895C23.8147 10.0342 22.6972 7.34648 20.6671 5.31987C18.637 3.29325 15.9303 2.18108 13.0559 2.18108C7.12702 2.1749 2.29704 6.97576 2.29704 12.8826C2.29704 14.903 2.86198 16.8741 3.94221 18.5794L4.19675 18.9872L3.11031 22.9354L7.1829 21.8726Z" fill="url(#paint0_linear_11_6333)"/>
        <path fill-rule="evenodd" clip-rule="evenodd" d="M9.82134 7.49537C9.57922 6.95782 9.32468 6.94546 9.09498 6.93928C8.90873 6.93311 8.69145 6.93311 8.47416 6.93311C8.25687 6.93311 7.90921 7.01343 7.61122 7.33472C7.31322 7.65601 6.48132 8.43453 6.48132 10.0225C6.48132 11.6042 7.64226 13.1365 7.80367 13.3528C7.96508 13.569 10.0448 16.9241 13.329 18.2154C16.0606 19.2905 16.6193 19.0743 17.2091 19.0187C17.7989 18.963 19.1212 18.2401 19.3944 17.4863C19.6613 16.7325 19.6613 16.0899 19.5806 15.954C19.4999 15.8181 19.2826 15.7378 18.9598 15.5771C18.637 15.4165 17.0477 14.638 16.7497 14.5267C16.4517 14.4217 16.2344 14.3661 16.0233 14.6874C15.8061 15.0087 15.1852 15.7316 14.999 15.9478C14.8127 16.1641 14.6203 16.1888 14.2975 16.0282C13.9746 15.8675 12.9317 15.5277 11.6962 14.4279C10.7339 13.5752 10.0821 12.5187 9.89584 12.1974C9.70959 11.8761 9.87721 11.7031 10.0386 11.5424C10.1814 11.4003 10.3615 11.1655 10.5229 10.9802C10.6843 10.7948 10.7402 10.6589 10.8457 10.4426C10.9512 10.2264 10.9016 10.041 10.8209 9.88035C10.7402 9.72588 10.1069 8.13178 9.82134 7.49537Z" fill="white"/>
        <defs>
            <linearGradient id="paint0_linear_11_6333" x1="13.0025" y1="25.9975" x2="13.0025" y2="0" gradientUnits="userSpaceOnUse">
                <stop stop-color="#F9F9F9"/>
                <stop offset="1" stop-color="white"/>
            </linearGradient>
        </defs>
    </g>

</svg>