<svg width="33.000000" height="33.000000" viewBox="0 0 33 33" xmlns="http://www.w3.org/2000/svg" xmlns:xlink="http://www.w3.org/1999/xlink">
    <g id="arrow-right">
        <path fill-rule="evenodd" clip-rule="evenodd" d="M2.33325 14.0002C2.33325 13.3559 2.85559 12.8335 3.49991 12.8335H24.4999C25.1442 12.8335 25.6666 13.3559 25.6666 14.0002C25.6666 14.6446 25.1442 15.1669 24.4999 15.1669H3.49991C2.85559 15.1669 2.33325 14.6446 2.33325 14.0002Z" fill="white"/>
        <path fill-rule="evenodd" clip-rule="evenodd" d="M16.6752 6.1752C17.1307 5.71959 17.8695 5.71959 18.3251 6.1752L25.3251 13.1753C25.7806 13.6308 25.7806 14.3696 25.3251 14.8252L18.3251 21.8252C17.8695 22.2807 17.1307 22.2807 16.6752 21.8252C16.2196 21.3696 16.2196 20.6308 16.6752 20.1753L22.8502 14.0002L16.6752 7.82512C16.2196 7.3695 16.2196 6.63082 16.6752 6.1752Z" fill="white"/>
    </g>
    <g id="edit"><path d="M14.3814 48.6342L28.4021 56.7279L44.5896 28.6889L30.5689 20.5951L14.3814 48.6342ZM12.6471 52.9701L15.0312 63.6654L25.5092 60.3401L12.6471 52.9701ZM32.8814 16.5483L46.9021 24.642L51.0207 17.5588L37 9.46506L32.8814 16.5483ZM7.51562 51.2358L35.2656 3.17969L57.3061 15.8984L29.5561 63.9545L11.6342 69.5924L7.51562 51.2358ZM35.2656 69.5924V64.9674H67.6406V69.5924H35.2656Z" fill="#2157F2"/>
    </g>
    <g id="export-border"><path d="M1.08333 23.8332H24.9167C25.233 23.8332 25.4926 23.9346 25.6956 24.1376C25.8985 24.3406 26 24.6002 26 24.9166C26 25.2329 25.8985 25.4926 25.6956 25.6956C25.4926 25.8985 25.233 26 24.9167 26H1.08333C0.767 26 0.507361 25.8985 0.304417 25.6956C0.101472 25.4926 0 25.2329 0 24.9166C0 24.6002 0.101472 24.3406 0.304417 24.1376C0.507361 23.9346 0.767 23.8332 1.08333 23.8332ZM14.0833 4.26436V19.5005H11.9167V4.02817L3.68983 12.2557L2.16667 10.7324L12.8982 0L23.6297 10.7324L22.0718 12.2557L14.0833 4.26436Z" fill="white" fill-opacity="0.96"/>
    </g>
    <g id="ins-border">
        <path d="M13.0052 2.34253C9.53333 2.34253 9.12579 2.35801 7.75357 2.41992C6.48452 2.47668 5.79841 2.68823 5.33928 2.86882C4.73055 3.10617 4.29722 3.3848 3.84325 3.83886C3.38929 4.29292 3.10556 4.72633 2.87341 5.33519C2.69802 5.7944 2.48135 6.48065 2.4246 7.74995C2.3627 9.12245 2.34722 9.53007 2.34722 13.0026C2.34722 16.4751 2.3627 16.8827 2.4246 18.2552C2.48135 19.5245 2.69286 20.2108 2.87341 20.67C3.11071 21.2788 3.38929 21.7122 3.84325 22.1663C4.29722 22.6204 4.73055 22.9041 5.33928 23.1363C5.79841 23.3118 6.48452 23.5285 7.75357 23.5852C9.12579 23.6472 9.53333 23.6626 13.0052 23.6626C16.477 23.6626 16.8845 23.6472 18.2567 23.5852C19.5258 23.5285 20.2119 23.3169 20.671 23.1363C21.2798 22.899 21.7131 22.6204 22.1671 22.1663C22.621 21.7122 22.9048 21.2788 23.1369 20.67C23.3123 20.2108 23.529 19.5245 23.5857 18.2552C23.6476 16.8827 23.6631 16.4751 23.6631 13.0026C23.6631 9.53007 23.6476 9.12245 23.5857 7.74995C23.529 6.48065 23.3175 5.7944 23.1369 5.33519C22.8996 4.72633 22.621 4.29292 22.1671 3.83886C21.7131 3.3848 21.2798 3.10101 20.671 2.86882C20.2119 2.69339 19.5258 2.47668 18.2567 2.41992C16.8845 2.35285 16.4718 2.34253 13.0052 2.34253ZM13.0052 0C16.5337 0 16.9774 0.0154793 18.3651 0.0773963C19.7476 0.139313 20.6917 0.361183 21.5171 0.681087C22.3734 1.01131 23.0956 1.46021 23.8179 2.18258C24.5401 2.90494 24.9837 3.63247 25.319 4.48383C25.6389 5.30939 25.8607 6.25362 25.9226 7.6416C25.9845 9.02441 26 9.46815 26 12.9974C26 16.5267 25.9845 16.9704 25.9226 18.3584C25.8607 19.7412 25.6389 20.6855 25.319 21.5162C24.9889 22.3727 24.5401 23.0951 23.8179 23.8174C23.0956 24.5398 22.3683 24.9835 21.5171 25.3189C20.6917 25.6388 19.7476 25.8607 18.3599 25.9226C16.9722 25.9845 16.5337 26 13 26C9.46627 26 9.02778 25.9845 7.64008 25.9226C6.25754 25.8607 5.31349 25.6388 4.48294 25.3189C3.62659 24.9887 2.90436 24.5398 2.18214 23.8174C1.45992 23.0951 1.01627 22.3675 0.680952 21.5162C0.361111 20.6906 0.139286 19.7464 0.0773811 18.3584C0.0154762 16.9704 0 16.5319 0 12.9974C0 9.46299 0.0154762 9.02441 0.0773811 7.63644C0.139286 6.25362 0.361111 5.30939 0.680952 4.47867C1.01111 3.62215 1.45992 2.89978 2.18214 2.17742C2.90436 1.45505 3.63175 1.01131 4.48294 0.675928C5.30833 0.356023 6.25238 0.134154 7.64008 0.0722366C9.03294 0.0154793 9.47659 0 13.0052 0Z" fill="white"/>
        <path d="M13.0052 6.32568C16.6885 6.32568 19.6805 9.31318 19.6805 13.0024C19.6805 16.6916 16.6936 19.6791 13.0052 19.6791C9.31666 19.6791 6.32976 16.6916 6.32976 13.0024C6.32976 9.31318 9.31666 6.32568 13.0052 6.32568ZM13.0052 17.3314C15.3988 17.3314 17.3385 15.3914 17.3385 12.9972C17.3385 10.6031 15.3988 8.66305 13.0052 8.66305C10.6115 8.66305 8.67182 10.6031 8.67182 12.9972C8.67182 15.3914 10.6115 17.3314 13.0052 17.3314Z" fill="white"/>
        <path d="M6.0667 7.61562C5.20627 7.61562 4.50876 6.91784 4.50876 6.05708C4.50876 5.19632 5.20627 4.49854 6.0667 4.49854C6.92712 4.49854 7.62463 5.19632 7.62463 6.05708C7.62463 6.91784 6.92712 7.61562 6.0667 7.61562Z" fill="white"/>
    </g>
    <g id="ins-icon">
        <path fill-rule="evenodd" clip-rule="evenodd" d="M8.02703 16.0221C8.02703 11.4781 11.8205 7.79451 16.5 7.79451C21.1795 7.79451 24.973 11.4781 24.973 16.0221C24.973 20.566 21.1795 24.2496 16.5 24.2496C11.8205 24.2496 8.02703 20.566 8.02703 16.0221ZM16.5 21.3627C13.4624 21.3627 11 18.9716 11 16.0221C11 13.0724 13.4624 10.6814 16.5 10.6814C19.5376 10.6814 22 13.0724 22 16.0221C22 18.9716 19.5376 21.3627 16.5 21.3627Z" fill="url(#paint0_linear_11_4785)"/>
        <path fill-rule="evenodd" clip-rule="evenodd" d="M8.02703 16.0221C8.02703 11.4781 11.8205 7.79451 16.5 7.79451C21.1795 7.79451 24.973 11.4781 24.973 16.0221C24.973 20.566 21.1795 24.2496 16.5 24.2496C11.8205 24.2496 8.02703 20.566 8.02703 16.0221ZM16.5 21.3627C13.4624 21.3627 11 18.9716 11 16.0221C11 13.0724 13.4624 10.6814 16.5 10.6814C19.5376 10.6814 22 13.0724 22 16.0221C22 18.9716 19.5376 21.3627 16.5 21.3627Z" fill="url(#paint1_radial_11_4785)"/>
        <path d="M25.3077 9.39207C26.4013 9.39207 27.2878 8.53131 27.2878 7.46945C27.2878 6.40759 26.4013 5.54677 25.3077 5.54677C24.2143 5.54677 23.3278 6.40759 23.3278 7.46945C23.3278 8.53131 24.2143 9.39207 25.3077 9.39207Z" fill="url(#paint2_linear_11_4785)"/>
        <path d="M25.3077 9.39207C26.4013 9.39207 27.2878 8.53131 27.2878 7.46945C27.2878 6.40759 26.4013 5.54677 25.3077 5.54677C24.2143 5.54677 23.3278 6.40759 23.3278 7.46945C23.3278 8.53131 24.2143 9.39207 25.3077 9.39207Z" fill="url(#paint3_radial_11_4785)"/>
        <path fill-rule="evenodd" clip-rule="evenodd" d="M16.5 0C12.0189 0 11.457 0.0184439 9.69707 0.096417C7.94084 0.174199 6.74139 0.44507 5.69187 0.841168C4.60685 1.25056 3.68669 1.79841 2.76934 2.68912C1.85205 3.57989 1.28786 4.4734 0.866261 5.527C0.458347 6.54611 0.179396 7.71081 0.0992932 9.41617C0.0189941 11.1251 0 11.6707 0 16.0221C0 20.3734 0.0189941 20.919 0.0992932 22.6279C0.179396 24.3333 0.458347 25.498 0.866261 26.5171C1.28786 27.5707 1.85205 28.4642 2.76934 29.355C3.68669 30.2457 4.60685 30.7935 5.69187 31.203C6.74139 31.599 7.94084 31.8699 9.69707 31.9477C11.457 32.0256 12.0189 32.0441 16.5 32.0441C20.9811 32.0441 21.543 32.0256 23.3029 31.9477C25.0592 31.8699 26.2586 31.599 27.3081 31.203C28.3931 30.7935 29.3133 30.2457 30.2307 29.355C31.1479 28.4642 31.7121 27.5707 32.1338 26.5171C32.5417 25.498 32.8206 24.3333 32.9007 22.6279C32.981 20.919 33 20.3734 33 16.0221C33 11.6707 32.981 11.1251 32.9007 9.41617C32.8206 7.71081 32.5417 6.54611 32.1338 5.527C31.7121 4.4734 31.1479 3.57989 30.2307 2.68912C29.3133 1.79841 28.3931 1.25056 27.3081 0.841168C26.2586 0.44507 25.0592 0.174199 23.3029 0.096417C21.543 0.0184439 20.9811 0 16.5 0ZM16.5 2.88685C20.9057 2.88685 21.4276 2.90319 23.1674 2.98028C24.7762 3.05151 25.6498 3.31252 26.2312 3.53194C27.0014 3.82259 27.5511 4.16978 28.1284 4.73047C28.7058 5.2911 29.0634 5.82483 29.3627 6.5727C29.5887 7.13727 29.8575 7.98563 29.9308 9.54776C30.0102 11.2372 30.027 11.744 30.027 16.0221C30.027 20.3001 30.0102 20.8069 29.9308 22.4963C29.8575 24.0585 29.5887 24.9068 29.3627 25.4714C29.0634 26.2192 28.7058 26.753 28.1284 27.3136C27.5511 27.8743 27.0014 28.2215 26.2312 28.5121C25.6498 28.7316 24.7762 28.9926 23.1674 29.0638C21.4278 29.1409 20.906 29.1572 16.5 29.1572C12.094 29.1572 11.5723 29.1409 9.83259 29.0638C8.22385 28.9926 7.35019 28.7316 6.76878 28.5121C5.9986 28.2215 5.44895 27.8743 4.87159 27.3136C4.29424 26.753 3.93663 26.2192 3.63731 25.4714C3.41134 24.9068 3.14254 24.0585 3.06919 22.4963C2.9898 20.8069 2.97297 20.3001 2.97297 16.0221C2.97297 11.744 2.9898 11.2372 3.06919 9.54776C3.14254 7.98563 3.41134 7.13727 3.63731 6.5727C3.93663 5.82483 4.29417 5.2911 4.87159 4.73047C5.44895 4.16978 5.9986 3.82259 6.76878 3.53194C7.35019 3.31252 8.22385 3.05151 9.83259 2.98028C11.5724 2.90319 12.0943 2.88685 16.5 2.88685Z" fill="url(#paint4_linear_11_4785)"/>
        <path fill-rule="evenodd" clip-rule="evenodd" d="M16.5 0C12.0189 0 11.457 0.0184439 9.69707 0.096417C7.94084 0.174199 6.74139 0.44507 5.69187 0.841168C4.60685 1.25056 3.68669 1.79841 2.76934 2.68912C1.85205 3.57989 1.28786 4.4734 0.866261 5.527C0.458347 6.54611 0.179396 7.71081 0.0992932 9.41617C0.0189941 11.1251 0 11.6707 0 16.0221C0 20.3734 0.0189941 20.919 0.0992932 22.6279C0.179396 24.3333 0.458347 25.498 0.866261 26.5171C1.28786 27.5707 1.85205 28.4642 2.76934 29.355C3.68669 30.2457 4.60685 30.7935 5.69187 31.203C6.74139 31.599 7.94084 31.8699 9.69707 31.9477C11.457 32.0256 12.0189 32.0441 16.5 32.0441C20.9811 32.0441 21.543 32.0256 23.3029 31.9477C25.0592 31.8699 26.2586 31.599 27.3081 31.203C28.3931 30.7935 29.3133 30.2457 30.2307 29.355C31.1479 28.4642 31.7121 27.5707 32.1338 26.5171C32.5417 25.498 32.8206 24.3333 32.9007 22.6279C32.981 20.919 33 20.3734 33 16.0221C33 11.6707 32.981 11.1251 32.9007 9.41617C32.8206 7.71081 32.5417 6.54611 32.1338 5.527C31.7121 4.4734 31.1479 3.57989 30.2307 2.68912C29.3133 1.79841 28.3931 1.25056 27.3081 0.841168C26.2586 0.44507 25.0592 0.174199 23.3029 0.096417C21.543 0.0184439 20.9811 0 16.5 0ZM16.5 2.88685C20.9057 2.88685 21.4276 2.90319 23.1674 2.98028C24.7762 3.05151 25.6498 3.31252 26.2312 3.53194C27.0014 3.82259 27.5511 4.16978 28.1284 4.73047C28.7058 5.2911 29.0634 5.82483 29.3627 6.5727C29.5887 7.13727 29.8575 7.98563 29.9308 9.54776C30.0102 11.2372 30.027 11.744 30.027 16.0221C30.027 20.3001 30.0102 20.8069 29.9308 22.4963C29.8575 24.0585 29.5887 24.9068 29.3627 25.4714C29.0634 26.2192 28.7058 26.753 28.1284 27.3136C27.5511 27.8743 27.0014 28.2215 26.2312 28.5121C25.6498 28.7316 24.7762 28.9926 23.1674 29.0638C21.4278 29.1409 20.906 29.1572 16.5 29.1572C12.094 29.1572 11.5723 29.1409 9.83259 29.0638C8.22385 28.9926 7.35019 28.7316 6.76878 28.5121C5.9986 28.2215 5.44895 27.8743 4.87159 27.3136C4.29424 26.753 3.93663 26.2192 3.63731 25.4714C3.41134 24.9068 3.14254 24.0585 3.06919 22.4963C2.9898 20.8069 2.97297 20.3001 2.97297 16.0221C2.97297 11.744 2.9898 11.2372 3.06919 9.54776C3.14254 7.98563 3.41134 7.13727 3.63731 6.5727C3.93663 5.82483 4.29417 5.2911 4.87159 4.73047C5.44895 4.16978 5.9986 3.82259 6.76878 3.53194C7.35019 3.31252 8.22385 3.05151 9.83259 2.98028C11.5724 2.90319 12.0943 2.88685 16.5 2.88685Z" fill="url(#paint5_radial_11_4785)"/>
        <defs>
            <linearGradient id="paint0_linear_11_4785" x1="1.92545" y1="1.68465" x2="11.7712" y2="40.9054" gradientUnits="userSpaceOnUse">
                <stop stop-color="#4E60D3"/>
                <stop offset="0.142763" stop-color="#913BAF"/>
                <stop offset="0.761458" stop-color="#D52D88"/>
                <stop offset="1" stop-color="#F26D4F"/>
            </linearGradient>
            <radialGradient id="paint1_radial_11_4785" cx="0" cy="0" r="1" gradientUnits="userSpaceOnUse" gradientTransform="translate(9.99053 32.0441) rotate(31.4061) scale(30.5699 21.7142)">
                <stop stop-color="#FED276"/>
                <stop offset="0.17024" stop-color="#FDBD61" stop-opacity="0.975006"/>
                <stop offset="0.454081" stop-color="#F6804D"/>
                <stop offset="1" stop-color="#E83D5C" stop-opacity="0.01"/>
            </radialGradient>
            <linearGradient id="paint2_linear_11_4785" x1="1.92545" y1="1.68465" x2="11.7712" y2="40.9054" gradientUnits="userSpaceOnUse">
                <stop stop-color="#4E60D3"/>
                <stop offset="0.142763" stop-color="#913BAF"/>
                <stop offset="0.761458" stop-color="#D52D88"/>
                <stop offset="1" stop-color="#F26D4F"/>
            </linearGradient>
            <radialGradient id="paint3_radial_11_4785" cx="0" cy="0" r="1" gradientUnits="userSpaceOnUse" gradientTransform="translate(9.99053 32.0441) rotate(31.4061) scale(30.5699 21.7142)">
                <stop stop-color="#FED276"/>
                <stop offset="0.17024" stop-color="#FDBD61" stop-opacity="0.975006"/>
                <stop offset="0.454081" stop-color="#F6804D"/>
                <stop offset="1" stop-color="#E83D5C" stop-opacity="0.01"/>
            </radialGradient>
            <linearGradient id="paint4_linear_11_4785" x1="1.92545" y1="1.68465" x2="11.7712" y2="40.9054" gradientUnits="userSpaceOnUse">
                <stop stop-color="#4E60D3"/>
                <stop offset="0.142763" stop-color="#913BAF"/>
                <stop offset="0.761458" stop-color="#D52D88"/>
                <stop offset="1" stop-color="#F26D4F"/>
            </linearGradient>
            <radialGradient id="paint5_radial_11_4785" cx="0" cy="0" r="1" gradientUnits="userSpaceOnUse" gradientTransform="translate(9.99053 32.0441) rotate(31.4061) scale(30.5699 21.7142)">
                <stop stop-color="#FED276"/>
                <stop offset="0.17024" stop-color="#FDBD61" stop-opacity="0.975006"/>
                <stop offset="0.454081" stop-color="#F6804D"/>
                <stop offset="1" stop-color="#E83D5C" stop-opacity="0.01"/>
            </radialGradient>
        </defs>
    </g>
    <g id="notebook">
        <path d="M25.0938 9.125V63.875H20.5312V9.125H13.6875V63.875H59.3125V9.125H25.0938ZM11.4062 4.5625H61.5938C62.2599 4.5625 62.8066 4.77618 63.234 5.20353C63.6613 5.63089 63.875 6.17763 63.875 6.84375V66.1562C63.875 66.8224 63.6613 67.3691 63.234 67.7965C62.8066 68.2238 62.2599 68.4375 61.5938 68.4375H11.4062C10.7401 68.4375 10.1934 68.2238 9.76603 67.7965C9.33868 67.3691 9.125 66.8224 9.125 66.1562V6.84375C9.125 6.17763 9.33868 5.63089 9.76603 5.20353C10.1934 4.77618 10.7401 4.5625 11.4062 4.5625ZM34.2188 18.25H47.9062C49.4271 18.25 50.1875 19.0104 50.1875 20.5312C50.1875 22.0521 49.4271 22.8125 47.9062 22.8125H34.2188C32.6979 22.8125 31.9375 22.0521 31.9375 20.5312C31.9375 19.0104 32.6979 18.25 34.2188 18.25ZM34.2188 31.9375H47.9062C49.4271 31.9375 50.1875 32.6979 50.1875 34.2188C50.1875 35.7396 49.4271 36.5 47.9062 36.5H34.2188C32.6979 36.5 31.9375 35.7396 31.9375 34.2188C31.9375 32.6979 32.6979 31.9375 34.2188 31.9375ZM34.2188 45.625H47.9062C49.4271 45.625 50.1875 46.3854 50.1875 47.9062C50.1875 49.4271 49.4271 50.1875 47.9062 50.1875H34.2188C32.6979 50.1875 31.9375 49.4271 31.9375 47.9062C31.9375 46.3854 32.6979 45.625 34.2188 45.625Z" fill="#2157F2"/>
    </g>
    <g id="tg-border">
        <path d="M30.5104 16.2212C30.5104 24.3703 23.9043 30.9764 15.7552 30.9764C7.60614 30.9764 1 24.3703 1 16.2212C1 8.07211 7.60614 1.46597 15.7552 1.46597C23.9043 1.46597 30.5104 8.07211 30.5104 16.2212Z" stroke="white" stroke-width="2"/>
        <path fill-rule="evenodd" clip-rule="evenodd" d="M7.13168 16.0549C11.7246 14.0538 14.7873 12.7346 16.3198 12.0972C20.6952 10.2773 21.6043 9.9612 22.1969 9.95076C22.3272 9.94847 22.6187 9.98077 22.8074 10.1339C22.9668 10.2633 23.0107 10.438 23.0317 10.5606C23.0526 10.6832 23.0788 10.9626 23.058 11.1808C22.8209 13.6721 21.795 19.7178 21.273 22.508C21.0522 23.6887 20.6173 24.0846 20.1963 24.1233C19.2814 24.2075 18.5866 23.5187 17.7004 22.9378C16.3138 22.0288 15.5304 21.463 14.1844 20.576C12.6289 19.5509 13.6372 18.9875 14.5237 18.0667C14.7557 17.8258 18.787 14.1591 18.865 13.8264C18.8747 13.7848 18.8838 13.6298 18.7917 13.5479C18.6996 13.466 18.5636 13.494 18.4655 13.5163C18.3264 13.5479 16.1112 15.012 11.8198 17.9088C11.1911 18.3406 10.6215 18.5509 10.1112 18.5399C9.5487 18.5278 8.4666 18.2219 7.66216 17.9604C6.67549 17.6396 5.8913 17.4701 5.95959 16.9254C5.99516 16.6417 6.38585 16.3515 7.13168 16.0549Z" fill="white"/>
    </g>
    <g id="tg-icon">
        <path d="M16.5118 32.1064C25.618 32.1064 33 24.9383 33 16.0959C33 7.25353 25.618 0.0853729 16.5118 0.0853729C7.40568 0.0853729 0.0236816 7.25353 0.0236816 16.0959C0.0236816 24.9383 7.40568 32.1064 16.5118 32.1064Z" fill="url(#paint0_linear_11_4787)"/>
        <path fill-rule="evenodd" clip-rule="evenodd" d="M7.4873 15.9269C12.2939 13.8934 15.4991 12.5528 17.1028 11.9051C21.6818 10.0557 22.6332 9.73448 23.2534 9.72387C23.3898 9.72153 23.6947 9.75436 23.8923 9.91001C24.0591 10.0414 24.105 10.219 24.1269 10.3436C24.1489 10.4682 24.1763 10.7521 24.1545 10.9739C23.9064 13.5055 22.8327 19.6492 22.2865 22.4846C22.0554 23.6844 21.6003 24.0867 21.1597 24.1261C20.2022 24.2117 19.4751 23.5116 18.5477 22.9213C17.0965 21.9976 16.2767 21.4226 14.8681 20.5213C13.2402 19.4796 14.2955 18.907 15.2232 17.9714C15.466 17.7265 19.6848 14.0004 19.7664 13.6624C19.7767 13.6201 19.7861 13.4625 19.6897 13.3793C19.5933 13.2961 19.451 13.3245 19.3484 13.3472C19.2028 13.3792 16.8845 14.8671 12.3936 17.8109C11.7355 18.2496 11.1395 18.4634 10.6055 18.4522C10.0168 18.4399 8.88432 18.129 8.04246 17.8633C7.00989 17.5373 6.18922 17.365 6.26069 16.8115C6.29791 16.5232 6.70678 16.2283 7.4873 15.9269Z" fill="white"/>
        <defs>
            <linearGradient id="paint0_linear_11_4787" x1="16.5118" y1="0.0853729" x2="16.5118" y2="31.869" gradientUnits="userSpaceOnUse">
                <stop stop-color="#2AABEE"/>
                <stop offset="1" stop-color="#229ED9"/>
            </linearGradient>
        </defs>
    </g>
    <g id="video-play">
        <path d="M36.5 4.5625C45.5307 4.79975 53.052 7.9243 59.0638 13.9362C65.0757 19.948 68.2002 27.4693 68.4375 36.5C68.2002 45.5307 65.0757 53.052 59.0638 59.0638C53.052 65.0757 45.5307 68.2002 36.5 68.4375C27.4693 68.2002 19.948 65.0757 13.9362 59.0638C7.9243 53.052 4.79975 45.5307 4.5625 36.5C4.79975 27.4693 7.9243 19.948 13.9362 13.9362C19.948 7.9243 27.4693 4.79975 36.5 4.5625ZM36.5 63.875C44.2471 63.6849 50.6985 61.0113 55.8541 55.8541C61.0097 50.697 63.6834 44.2456 63.875 36.5C63.6849 28.7529 61.0113 22.3015 55.8541 17.1459C50.697 11.9902 44.2456 9.31663 36.5 9.125C28.7529 9.3151 22.3015 11.9887 17.1459 17.1459C11.9902 22.303 9.31663 28.7544 9.125 36.5C9.3151 44.2471 11.9887 50.6985 17.1459 55.8541C22.303 61.0097 28.7544 63.6834 36.5 63.875ZM33.0781 46.1953L47.6918 36.5L33.0781 26.8047V46.1953ZM33.8629 21.8156L51.6133 33.6507C52.6109 34.364 53.1098 35.3145 53.1098 36.5023C53.1098 37.6901 52.6109 38.6406 51.6133 39.3538L33.8629 51.189C33.2926 51.5692 32.6987 51.7714 32.0812 51.7958C31.4638 51.8201 30.8813 51.6772 30.3338 51.3669C29.7863 51.0567 29.3468 50.6407 29.0152 50.1191C28.6837 49.5974 28.5171 49.0035 28.5156 48.3374V24.6694C28.5156 24.0033 28.6822 23.4094 29.0152 22.8878C29.3483 22.3661 29.7878 21.9502 30.3338 21.6399C30.8798 21.3297 31.4622 21.1867 32.0812 21.2111C32.7002 21.2354 33.2941 21.4377 33.8629 21.8179V21.8156Z" fill="#2157F2"/>
    </g>
    <g id="wa-border">
        <path d="M0 26L1.83763 19.327C0.701528 17.3683 0.10554 15.1502 0.111748 12.8826C0.111748 5.77709 5.92263 0 13.0559 0C16.52 0 19.7731 1.34078 22.213 3.77519C24.659 6.2096 26.0062 9.44724 26 12.8888C26 19.9943 20.1891 25.7714 13.0497 25.7714H13.0434C10.8768 25.7714 8.74737 25.2277 6.85386 24.202L0 26ZM7.1829 21.8726L7.57402 22.1074C9.2254 23.0836 11.1189 23.5965 13.0497 23.6027H13.0559C18.9847 23.6027 23.8147 18.8018 23.8147 12.895C23.8147 10.0342 22.6972 7.34648 20.6671 5.31987C18.637 3.29325 15.9303 2.18108 13.0559 2.18108C7.12702 2.1749 2.29704 6.97576 2.29704 12.8826C2.29704 14.903 2.86198 16.8741 3.94221 18.5794L4.19675 18.9872L3.11031 22.9354L7.1829 21.8726Z" fill="url(#paint0_linear_11_6333)"/>
        <path fill-rule="evenodd" clip-rule="evenodd" d="M9.82134 7.49537C9.57922 6.95782 9.32468 6.94546 9.09498 6.93928C8.90873 6.93311 8.69145 6.93311 8.47416 6.93311C8.25687 6.93311 7.90921 7.01343 7.61122 7.33472C7.31322 7.65601 6.48132 8.43453 6.48132 10.0225C6.48132 11.6042 7.64226 13.1365 7.80367 13.3528C7.96508 13.569 10.0448 16.9241 13.329 18.2154C16.0606 19.2905 16.6193 19.0743 17.2091 19.0187C17.7989 18.963 19.1212 18.2401 19.3944 17.4863C19.6613 16.7325 19.6613 16.0899 19.5806 15.954C19.4999 15.8181 19.2826 15.7378 18.9598 15.5771C18.637 15.4165 17.0477 14.638 16.7497 14.5267C16.4517 14.4217 16.2344 14.3661 16.0233 14.6874C15.8061 15.0087 15.1852 15.7316 14.999 15.9478C14.8127 16.1641 14.6203 16.1888 14.2975 16.0282C13.9746 15.8675 12.9317 15.5277 11.6962 14.4279C10.7339 13.5752 10.0821 12.5187 9.89584 12.1974C9.70959 11.8761 9.87721 11.7031 10.0386 11.5424C10.1814 11.4003 10.3615 11.1655 10.5229 10.9802C10.6843 10.7948 10.7402 10.6589 10.8457 10.4426C10.9512 10.2264 10.9016 10.041 10.8209 9.88035C10.7402 9.72588 10.1069 8.13178 9.82134 7.49537Z" fill="white"/>
        <defs>
            <linearGradient id="paint0_linear_11_6333" x1="13.0025" y1="25.9975" x2="13.0025" y2="0" gradientUnits="userSpaceOnUse">
                <stop stop-color="#F9F9F9"/>
                <stop offset="1" stop-color="white"/>
            </linearGradient>
        </defs>
    </g>
    <g id="wa-icon">
        <path d="M11.1896 8.569C11.4732 8.58058 11.787 8.59383 12.0851 9.25473C12.2888 9.70653 12.6316 10.5488 12.9048 11.2201C13.1061 11.7147 13.2696 12.1165 13.3118 12.2007C13.4113 12.3991 13.4776 12.6309 13.3449 12.8959C13.3251 12.9355 13.3067 12.9729 13.2892 13.0086C13.1895 13.2115 13.1162 13.3606 12.9474 13.5577C12.8812 13.6348 12.8128 13.7177 12.7444 13.8007C12.6071 13.9674 12.4697 14.134 12.3504 14.2527C12.1508 14.4506 11.9435 14.6656 12.1757 15.0625C12.4079 15.4598 13.2065 16.7589 14.3894 17.8108C15.6602 18.9409 16.7642 19.4189 17.3248 19.6616C17.4349 19.7093 17.524 19.7479 17.5894 19.7805C17.9874 19.979 18.2195 19.946 18.4516 19.6807C18.6838 19.4161 19.446 18.5223 19.7113 18.1254C19.9766 17.7281 20.2419 17.7943 20.6067 17.9266C20.9715 18.0589 22.9278 19.0191 23.3258 19.2176C23.4034 19.2563 23.4759 19.2912 23.5432 19.3236C23.8209 19.4573 24.0084 19.5475 24.0885 19.6807C24.188 19.8467 24.188 20.641 23.8564 21.5676C23.5248 22.4943 21.9001 23.3881 21.1705 23.4542C21.1003 23.4606 21.0305 23.4688 20.9587 23.4772C20.2844 23.5563 19.4334 23.6561 16.3954 22.4613C12.6573 20.991 10.1926 17.3475 9.68339 16.5948C9.64164 16.5331 9.61303 16.4908 9.59795 16.4707L9.59352 16.4648C9.37895 16.1788 7.97312 14.305 7.97312 12.3661C7.97312 10.5384 8.87389 9.5803 9.28834 9.13949C9.31666 9.10937 9.34271 9.08166 9.36605 9.05626C9.73058 8.6591 10.1618 8.55971 10.427 8.55971C10.4416 8.55971 10.4561 8.55971 10.4707 8.55971C10.7212 8.55968 10.9705 8.55965 11.1896 8.569Z" fill="url(#paint0_linear_11_4786)"/>
        <path fill-rule="evenodd" clip-rule="evenodd" d="M2.28113 23.8088C0.867471 21.4054 0.128514 18.6817 0.128514 15.8618C0.128514 7.11378 7.29317 0 16.0643 0C20.3374 0 24.3213 1.66629 27.3414 4.64639C30.3293 7.65853 32 11.632 32 15.8939C32 24.6419 24.8353 31.7557 16.0643 31.7557C13.3976 31.7557 10.7631 31.1148 8.4498 29.833L0 32.0441L2.28113 23.8088ZM4.8514 22.9115L5.17269 23.3922L3.82329 28.2629L8.83534 26.9491L9.31727 27.2375C11.3414 28.4551 13.6867 29.096 16.0643 29.096C23.3574 29.096 29.3012 23.1679 29.3012 15.8939C29.3012 12.369 27.9197 9.03643 25.4137 6.53699C22.9398 4.0696 19.5984 2.6917 16.0643 2.6917C8.77108 2.6917 2.82731 8.58781 2.82731 15.8939C2.82731 18.3613 3.53414 20.7966 4.8514 22.9115Z" fill="url(#paint1_linear_11_4786)"/>
        <defs>
            <linearGradient id="paint0_linear_11_4786" x1="0" y1="16.0238" x2="32" y2="16.0238" gradientUnits="userSpaceOnUse">
                <stop stop-color="#20B038"/>
                <stop offset="1" stop-color="#60D66A"/>
            </linearGradient>
            <linearGradient id="paint1_linear_11_4786" x1="0" y1="16.0238" x2="32" y2="16.0238" gradientUnits="userSpaceOnUse">
                <stop stop-color="#20B038"/>
                <stop offset="1" stop-color="#60D66A"/>
            </linearGradient>
        </defs>
    </g>
</svg>